<?xml version="1.0" encoding="UTF-8"?>
<svg width="777px" height="554px" viewBox="0 0 777 554" version="1.1" xmlns="http://www.w3.org/2000/svg" xmlns:xlink="http://www.w3.org/1999/xlink">
    <!-- Generator: Sketch 61.2 (89653) - https://sketch.com -->
    <title>NESGo</title>
    <desc>Created with Sketch.</desc>
    <g id="NESGo" stroke="none" stroke-width="1" fill="none" fill-rule="evenodd">
        <g id="Group" transform="translate(6.000000, 14.000000)">
            <path d="M97.5,1 C227.5,1 500.5,1 640.5,1 C780.5,1 780.5,158 640.5,158 C500.5,158 227.5,158 97.5,158 C-32.5,158 -32.5,1 97.5,1 Z" id="Rectangle" stroke="#FF0000" stroke-width="10"></path>
            <path d="M196.716797,115 L196.716797,66.171875 L227.087891,115 L248.669922,115 L248.669922,44.9804688 L227.087891,44.9804688 L227.087891,93.8085938 L196.912109,44.9804688 L175.085938,44.9804688 L175.085938,115 L196.716797,115 Z M314.832031,115 L314.832031,104.990234 L279.138672,104.990234 L279.138672,84.9707031 L312.390625,84.9707031 L312.390625,74.9609375 L279.138672,74.9609375 L279.138672,54.9902344 L314.832031,54.9902344 L314.832031,44.9804688 L257.507813,44.9804688 L257.507813,115 L314.832031,115 Z M357.507813,117.539062 C368.054688,117.539062 376.168294,115.691732 381.848633,111.99707 C387.528971,108.302409 390.369141,103.183594 390.369141,96.640625 C390.369141,90.3255208 387.830078,85.2636719 382.751953,81.4550781 C379.496745,78.9811198 373.580404,76.0595703 365.00293,72.6904297 C356.425456,69.3212891 351.046224,66.8391927 348.865234,65.2441406 C346.684245,63.6490885 345.59375,61.5657552 345.59375,58.9941406 C345.59375,54.6321615 349.027995,52.4511719 355.896484,52.4511719 C364.001953,52.4511719 368.510417,56.3736979 369.421875,64.21875 L369.421875,64.21875 L388.953125,64.21875 C386.316406,49.7005208 375.264974,42.4414062 355.798828,42.4414062 C347.139974,42.4414062 340.092448,43.7272135 334.65625,46.2988281 C327.527344,49.6516927 323.962891,55.0878906 323.962891,62.6074219 C323.962891,68.7597656 326.567057,73.7402344 331.775391,77.5488281 C335.421224,80.218099 342.615234,83.5221354 353.357422,87.4609375 C359.184245,89.609375 363.204427,91.6357422 365.417969,93.5400391 C367.63151,95.4443359 368.738281,97.6497396 368.738281,100.15625 C368.738281,102.532552 367.867513,104.355469 366.125977,105.625 C364.38444,106.894531 361.462891,107.529297 357.361328,107.529297 C347.953776,107.529297 342.777995,103.004557 341.833984,93.9550781 L341.833984,93.9550781 L322.253906,93.9550781 C324.792969,109.677734 336.544271,117.539062 357.507813,117.539062 Z M425.378906,96.5917969 L425.378906,81.2109375 L396.472656,81.2109375 L396.472656,96.5917969 L425.378906,96.5917969 Z M469.617188,117.539062 C483.484375,117.539062 495.186849,113.4375 504.724609,105.234375 L504.724609,105.234375 L504.724609,74.9609375 L467.859375,74.9609375 L467.859375,84.9707031 L483.09375,84.9707031 L483.09375,103.378906 C479.708333,106.145833 475.216146,107.529297 469.617188,107.529297 C464.115885,107.529297 460.128255,105.852865 457.654297,102.5 C454.529297,98.3007812 452.950521,90.797526 452.917969,79.9902344 C452.917969,69.280599 454.464193,61.8098958 457.556641,57.578125 C460.095703,54.1601562 463.953125,52.4511719 469.128906,52.4511719 C473.71875,52.4511719 477.079753,53.5009766 479.211914,55.6005859 C481.344076,57.7001953 482.768229,60.6217448 483.484375,64.3652344 L483.484375,64.3652344 L503.748047,64.3652344 C502.641276,59.3196615 499.280273,54.4042969 493.665039,49.6191406 C488.049805,44.8339844 479.871094,42.4414062 469.128906,42.4414062 C457.442708,42.4414062 448.181641,45.859375 441.345703,52.6953125 C434.639974,59.4010417 431.287109,68.499349 431.287109,79.9902344 C431.287109,91.4160156 434.607422,100.481771 441.248047,107.1875 C448.083984,114.088542 457.540365,117.539062 469.617188,117.539062 Z M543.445313,117.539062 C547.644531,117.539062 551.648438,116.855469 555.457031,115.488281 C559.135417,114.153646 562.374349,112.281901 565.173828,109.873047 C568.070964,107.464193 570.284505,104.697266 571.814453,101.572266 C573.442057,98.3496094 574.255859,94.9479167 574.255859,91.3671875 C574.255859,87.8190104 573.442057,84.4335938 571.814453,81.2109375 C570.284505,78.0859375 568.070964,75.3190104 565.173828,72.9101562 C562.374349,70.5338542 559.135417,68.6783854 555.457031,67.34375 C551.648438,65.9440104 547.644531,65.2441406 543.445313,65.2441406 C539.311198,65.2441406 535.323568,65.9440104 531.482422,67.34375 C527.804036,68.6783854 524.548828,70.5338542 521.716797,72.9101562 C518.917318,75.3190104 516.720052,78.0859375 515.125,81.2109375 C513.529948,84.4335938 512.732422,87.8190104 512.732422,91.3671875 C512.732422,94.9479167 513.529948,98.3496094 515.125,101.572266 C516.720052,104.697266 518.917318,107.464193 521.716797,109.873047 C524.548828,112.281901 527.804036,114.153646 531.482422,115.488281 C535.323568,116.855469 539.311198,117.539062 543.445313,117.539062 Z M543.298828,111.630859 C540.955078,111.630859 538.985677,110.817057 537.390625,109.189453 C535.60026,107.333984 534.705078,104.664714 534.705078,101.181641 L534.705078,101.181641 L534.705078,81.4550781 C534.705078,78.0371094 535.632813,75.3678385 537.488281,73.4472656 C539.018229,71.8196615 540.955078,71.0058594 543.298828,71.0058594 C545.67513,71.0058594 547.628255,71.8196615 549.158203,73.4472656 C550.98112,75.3678385 551.892578,78.0371094 551.892578,81.4550781 L551.892578,81.4550781 L551.892578,101.181641 C551.892578,104.664714 550.997396,107.333984 549.207031,109.189453 C547.644531,110.817057 545.67513,111.630859 543.298828,111.630859 Z" id="NES-Go" fill="#000000" fill-rule="nonzero"></path>
        </g>
        <g id="Group-4" transform="translate(267.000000, 201.000000)">
            <g id="gopher" transform="translate(0.735238, 0.000000)">
                <path d="M19.49805,65.06429 C-19.695,54.0157476 9.4484,4.03275706 40.9214,24.5914124 L19.49805,65.06429 Z" id="Path" stroke="#000000" stroke-width="3" fill="#FF0000" stroke-linecap="round"></path>
                <path d="M193.63175,20.8407985 C224.6543,-1.00281356 252.68815,48.2803578 216.63395,60.6803202 L193.63175,20.8407985 Z" id="Path" stroke="#000000" stroke-width="3" fill="#FF0000" stroke-linecap="round"></path>
                <path d="M200.30465,313.643461 C208.1846,318.531119 222.58795,333.310075 210.76705,340.47638 C199.40895,350.901341 193.05195,329.03362 183.0829,326.003676 C187.37615,320.158817 192.81795,314.829375 200.30465,313.643461 Z" id="Path" stroke="#000000" stroke-width="3" fill="#F6D2A2" stroke-linecap="round"></path>
                <path d="M210.76705,340.475729 C209.01465,336.982497 208.4264,332.905431 205.50075,330.089864" id="Path" stroke="#000000" stroke-width="3" stroke-linecap="round"></path>
                <path d="M59.52635,330.345292 C50.2775,331.780117 45.07165,340.144716 37.36135,344.392501 C30.09565,348.73542 27.31625,343.001985 26.6617,341.838226 C25.5229,341.317597 25.61845,342.323017 23.86085,340.548708 C17.12555,329.892429 30.8789,322.103194 38.0406,316.809589 C48.0155,314.788324 54.26655,323.45722 59.52635,330.345292 Z" id="Path" stroke="#000000" stroke-width="3" fill="#F6D2A2" stroke-linecap="round"></path>
                <path d="M26.66235,341.837574 C27.01465,337.776147 30.22695,335.056365 31.75705,331.622429" id="Path" stroke="#000000" stroke-width="3" stroke-linecap="round"></path>
                <path d="M21.13345,51.2594765 C15.9627,48.5175405 12.1693,44.7936422 15.3322,38.7982637 C18.26045,33.2479284 23.7003,33.8506591 28.8717,36.5925951 L21.13345,51.2594765 Z" id="Path" fill="#000000" fill-rule="nonzero"></path>
                <path d="M208.4654,46.0466704 C213.63615,43.3047345 217.42955,39.5808362 214.26665,33.5854576 C211.3384,28.0351224 205.89855,28.6378531 200.72715,31.3797891 L208.4654,46.0466704 Z" id="Path" fill="#000000" fill-rule="nonzero"></path>
                <path d="M116.0328,0.0807984934 C155.27005,0.0807984934 192.05225,5.7060678 211.2266,43.4963051 C228.4373,85.8542637 222.3169,131.530173 224.9416,176.296448 C227.1958,214.73568 232.19365,259.144226 214.4051,294.765284 C195.6916,332.24145 148.9306,341.66881 110.4051,340.288068 C80.14435,339.202501 43.589,329.305989 26.51025,301.590151 C6.47335,269.075273 15.95945,220.7278 17.4148,184.54832 C19.1386,141.691887 5.83505,98.7051337 19.8796,56.7687608 C34.44935,13.2659397 73.74315,3.43458757 116.0328,0.0807984934" id="Path" stroke="#000000" stroke-width="3" fill="#FF0000" stroke-linecap="round"></path>
                <path d="M122.95985,52.8839171 C130.00455,93.9367194 196.94415,83.082354 187.32935,41.678339 C178.70775,4.55012806 120.61855,14.8271751 122.95985,52.8839171" id="Path" stroke="#000000" stroke-width="2.9081" fill="#FFFFFF" stroke-linecap="round"></path>
                <path d="M42.96695,59.5237288 C52.0975,95.2640301 109.17855,86.1136008 107.02705,50.2625273 C104.44915,7.32529567 34.23745,15.6103992 42.96695,59.5237288" id="Path" stroke="#000000" stroke-width="2.8214" fill="#FFFFFF" stroke-linecap="round"></path>
                <path d="M131.0361,102.146237 C131.066,107.483499 132.24575,113.47562 131.2389,119.153669 C129.87975,121.728795 127.21345,122.001164 124.91505,123.04177 C121.73655,122.541992 119.06375,120.449702 117.7891,117.469281 C116.97335,110.98846 118.0933,104.713544 118.29935,98.2301168 L131.0361,102.146237 Z" id="Path" stroke="#000000" stroke-width="3" fill="#FFFFFF" stroke-linecap="round"></path>
                <g id="Group" transform="translate(64.350000, 54.082863)">
                    <ellipse id="Oval" fill="#000000" fill-rule="nonzero" cx="9.9606" cy="10.6888588" rx="9.63885" ry="10.4660113"></ellipse>
                    <ellipse id="Oval" fill="#FFFFFF" cx="14.34485" cy="13.0509115" rx="2.2724" ry="2.65983427"></ellipse>
                </g>
                <g id="Group" transform="translate(146.900000, 54.082863)">
                    <ellipse id="Oval" fill="#000000" fill-rule="nonzero" cx="10.12115" cy="10.6888588" rx="9.4783" ry="10.4660113"></ellipse>
                    <ellipse id="Oval" fill="#FFFFFF" cx="14.4326" cy="13.0509115" rx="2.2347" ry="2.65983427"></ellipse>
                </g>
                <path d="M103.49105,101.565009 C99.28555,111.782109 105.83625,132.213051 117.247,117.14348 C116.43125,110.662659 117.5512,104.387744 117.75725,97.9043164 L103.49105,101.565009 Z" id="Path" stroke="#000000" stroke-width="3" fill="#FFFFFF" stroke-linecap="round"></path>
                <g id="Group" transform="translate(92.950000, 69.721281)">
                    <path d="M11.98015,12.1673409 C4.1418,12.8371864 -2.26525,22.179838 1.81025,29.5709454 C7.2072,39.3605951 19.25365,28.704968 26.7566,29.7032203 C35.39185,29.8804557 42.4671,38.8562561 49.4026,31.3257062 C57.11615,22.9500301 46.08175,14.7926403 37.45755,11.1456309 L11.98015,12.1673409 Z" id="Path" stroke="#231F20" stroke-width="3" fill="#F6D2A2" stroke-linecap="round"></path>
                    <path d="M10.99345,11.7581356 C10.413,-1.85445574 36.30315,-3.55643691 39.36075,7.83810546 C42.41055,19.2059322 12.2681,21.8462185 10.99345,11.7581356 C9.9762,3.70239548 10.99345,11.7581356 10.99345,11.7581356 Z" id="Path" fill="#000000" fill-rule="nonzero"></path>
                </g>
            </g>
            <g id="Nes_controller" transform="translate(120.735238, 227.500000) scale(1, -1) translate(-120.735238, -227.500000) translate(7.735238, 181.000000)">
                <rect id="rect11983" fill="#1A1A1A" fill-rule="nonzero" x="5.86167147" y="14.958042" width="214.927954" height="72.8391608"></rect>
                <path d="M75.8822562,13.006993 L132.532729,13.006993 C134.514448,13.006993 136.121037,14.6083588 136.121037,16.5836344 L136.121037,20.4862957 C136.121037,22.4615713 134.514448,24.0629371 132.532729,24.0629371 L75.8822562,24.0629371 C73.9005374,24.0629371 72.2939481,22.4615713 72.2939481,20.4862957 L72.2939481,16.5836344 C72.2939481,14.6083588 73.900907,13.006993 75.8822562,13.006993 Z" id="rect12203" fill="#808080" fill-rule="nonzero"></path>
                <path d="M75.8822562,80.6433566 L132.532729,80.6433566 C134.514448,80.6433566 136.121037,82.2447224 136.121037,84.219998 L136.121037,88.1226593 C136.121037,90.097935 134.514448,91.6993007 132.532729,91.6993007 L75.8822562,91.6993007 C73.9005374,91.6993007 72.2939481,90.097935 72.2939481,88.1226593 L72.2939481,84.219998 C72.2939481,82.244354 73.900907,80.6433566 75.8822562,80.6433566 Z" id="rect13178" fill="#808080" fill-rule="nonzero"></path>
                <path d="M3.01036925,0 C1.34565573,0 0,1.34521522 0,3.00938378 L0,89.9909853 C0,91.6551539 1.34602501,93 3.01036925,93 L223.063117,93 C224.727831,93 226,91.6547847 226,89.9909853 L226,3.00938378 C226,1.34521522 224.727831,0 223.063117,0 L3.01036925,0 L3.01036925,0 Z M5.8741344,15.4876947 L220.789831,15.4876947 L220.789831,87.5659801 L5.8741344,87.5659801 L5.8741344,15.4876947 L5.8741344,15.4876947 Z" id="rect11976" fill="#DCDCDC" fill-rule="nonzero"></path>
                <path d="M32.1288373,33.8181818 C31.1472526,33.8181818 30.4064961,34.6394648 30.4064961,35.634937 L30.4064961,48.1420843 L18.0738311,48.1420843 C17.0922464,48.1420843 16.2824207,48.9637379 16.2824207,49.9588394 L16.2824207,60.0202978 C16.2824207,61.0157699 17.0922464,61.8366823 18.0738311,61.8366823 L30.4064961,61.8366823 L30.4064961,74.3438296 C30.4064961,75.3393017 31.1476181,76.0909091 32.1288373,76.0909091 L42.1190013,76.0909091 C43.100586,76.0909091 43.8413425,75.3396723 43.8413425,74.3438296 L43.8413425,61.8366823 L56.1740076,61.8366823 C57.1555922,61.8366823 57.9654179,61.0153993 57.9654179,60.0202978 L57.9654179,49.9588394 C57.9654179,48.9633673 57.1555922,48.1420843 56.1740076,48.1420843 L43.8413425,48.1420843 L43.8413425,35.634937 C43.8413425,34.6394648 43.1002205,33.8181818 42.1190013,33.8181818 L32.1288373,33.8181818 Z" id="rect2235" stroke="#FFFFFF" stroke-width="1.6523" fill="#000000" fill-rule="nonzero" stroke-linecap="round"></path>
                <path d="M32.9662766,35.1188811 C32.6520393,35.1188811 32.409522,35.3614125 32.409522,35.6748207 L32.409522,49.2713459 L18.7930658,49.2713459 C18.4791982,49.2713459 18.2363112,49.5135082 18.2363112,49.8272855 L18.2363112,59.4059844 C18.2363112,59.7197617 18.4791982,59.9870262 18.7930658,59.9870262 L32.409522,59.9870262 L32.409522,73.5588184 C32.409522,73.8722265 32.652409,74.1398601 32.9662766,74.1398601 L42.5841557,74.1398601 C42.898393,74.1398601 43.1409103,73.8718574 43.1409103,73.5588184 L43.1409103,59.9870262 L56.7573665,59.9870262 C57.0716038,59.9870262 57.314121,59.7193926 57.314121,59.4059844 L57.314121,49.8272855 C57.314121,49.5135082 57.0712341,49.2713459 56.7573665,49.2713459 L43.1409103,49.2713459 L43.1409103,35.6748207 C43.1409103,35.3610434 42.898393,35.1188811 42.5841557,35.1188811 L32.9662766,35.1188811 Z" id="rect3757" fill="#1A1A1A" fill-rule="nonzero"></path>
                <path d="M75.8822562,27.3146853 L132.532729,27.3146853 C134.514448,27.3146853 136.121037,28.9161044 136.121037,30.8910775 L136.121037,34.7938688 C136.121037,36.7692103 134.514448,38.3706294 132.532729,38.3706294 L75.8822562,38.3706294 C73.9005374,38.3706294 72.2939481,36.7692103 72.2939481,34.7938688 L72.2939481,30.8910775 C72.2939481,28.9161044 73.900907,27.3146853 75.8822562,27.3146853 Z" id="rect11986" fill="#808080" fill-rule="nonzero"></path>
                <g id="g12011" transform="translate(145.890490, 52.678322)" fill-rule="nonzero">
                    <path d="M2.1245503,0.392731146 L23.9807493,0.392731146 C24.9451495,0.392731146 25.7258039,1.17331081 25.7258039,2.13524798 L25.7258039,23.9596615 C25.7258039,24.9215987 24.9451495,25.7021784 23.9807493,25.7021784 L2.1245503,25.7021784 C1.16015003,25.7021784 0.379495633,24.9215987 0.379495633,23.9596615 L0.379495633,2.13524798 C0.379495633,1.17225024 1.16121215,0.392731146 2.1245503,0.392731146 Z" id="rect11997" fill="#DDDDDD"></path>
                    <path d="M23.4390707,13.1545724 C23.4390707,18.8837726 18.7880699,23.5269489 13.0515877,23.5269489 C7.31510548,23.5269489 2.66410463,18.882712 2.66410463,13.1545724 C2.66410463,7.42643271 7.31510548,2.7821958 13.0515877,2.7821958 C18.7880699,2.7821958 23.4390707,7.42537214 23.4390707,13.1545724 Z" id="path12001" fill="#FF0000"></path>
                </g>
                <g id="g12007" transform="translate(174.547550, 52.678322)" fill-rule="nonzero">
                    <path d="M2.23076178,0.392731146 L24.0869608,0.392731146 C25.0502989,0.392731146 25.8320154,1.17331081 25.8320154,2.13524798 L25.8320154,23.9596615 C25.8320154,24.9215987 25.0502989,25.7021784 24.0869608,25.7021784 L2.23076178,25.7021784 C1.26636152,25.7021784 0.485707116,24.9215987 0.485707116,23.9596615 L0.485707116,2.13524798 C0.485707116,1.17225024 1.26742363,0.392731146 2.23076178,0.392731146 Z" id="rect12003" fill="#DDDDDD"></path>
                    <path d="M23.5559033,13.1545724 C23.5559033,18.8837726 18.9049025,23.5269489 13.1684203,23.5269489 C7.43087599,23.5269489 2.77987515,18.882712 2.77987515,13.1545724 C2.77987515,7.42643271 7.43087599,2.78219562 13.1684203,2.78219562 C18.9049025,2.78113523 23.5559033,7.42537214 23.5559033,13.1545724 Z" id="path12005" fill="#FF0000"></path>
                </g>
                <path d="M75.8822562,41.6223776 L132.532729,41.6223776 C134.514448,41.6223776 136.121037,43.2237434 136.121037,45.199019 L136.121037,49.1016803 C136.121037,51.0769559 134.514448,52.6783217 132.532729,52.6783217 L75.8822562,52.6783217 C73.9005374,52.6783217 72.2939481,51.0769559 72.2939481,49.1016803 L72.2939481,45.199019 C72.2939481,43.2237434 73.900907,41.6223776 75.8822562,41.6223776 Z" id="rect12205" fill="#808080" fill-rule="nonzero"></path>
                <path d="M76.2925641,55.2797203 L132.122791,55.2797203 C134.331065,55.2797203 136.121037,57.1044312 136.121037,59.3550964 L136.121037,72.6658826 C136.121037,74.9169244 134.330695,76.7412587 132.122791,76.7412587 L76.2925641,76.7412587 C74.083921,76.7412587 72.2939481,74.9165478 72.2939481,72.6658826 L72.2939481,59.3550964 C72.2939481,57.1044312 74.083921,55.2797203 76.2925641,55.2797203 Z" id="rect12199" fill="#DDDDDD" fill-rule="nonzero"></path>
                <path d="M78.1750841,57.8811189 L130.239901,57.8811189 C132.04936,57.8811189 133.51585,59.3188879 133.51585,61.0921001 L133.51585,71.5795908 C133.51585,73.3531653 132.048991,74.7902098 130.239901,74.7902098 L78.1750841,74.7902098 C76.3656251,74.7902098 74.8991354,73.352803 74.8991354,71.5795908 L74.8991354,61.0921001 C74.8991354,59.3188879 76.3656251,57.8811189 78.1750841,57.8811189 Z" id="rect12207" stroke="#808080" stroke-width="1.4584" stroke-linecap="round"></path>
                <path d="M83.5746804,62.4335664 L94.2293542,62.4335664 C96.1431721,62.4335664 97.6945245,64.0348667 97.6945245,66.0106766 L97.6945245,66.0106766 C97.6945245,67.9857382 96.1431721,69.5874126 94.2293542,69.5874126 L83.5746804,69.5874126 C81.6608625,69.5874126 80.1095101,67.9861124 80.1095101,66.0106766 L80.1095101,66.0106766 C80.1095101,64.0348667 81.6608625,62.4335664 83.5746804,62.4335664 Z" id="rect4247" fill="#000000" fill-rule="nonzero"></path>
                <path d="M114.185851,62.4335664 L124.840086,62.4335664 C126.753825,62.4335664 128.305476,64.0348667 128.305476,66.0106766 L128.305476,66.0106766 C128.305476,67.9857382 126.754187,69.5874126 124.840086,69.5874126 L114.185851,69.5874126 C112.272112,69.5874126 110.720461,67.9861124 110.720461,66.0106766 L110.720461,66.0106766 C110.720461,64.0348667 112.27175,62.4335664 114.185851,62.4335664 Z" id="rect5332" fill="#000000" fill-rule="nonzero"></path>
                <g id="text2887" transform="translate(88.904899, 47.374126) scale(-1, 1) translate(-88.904899, -47.374126) translate(74.904899, 44.874126)" fill="#FF0000" fill-rule="nonzero">
                    <path d="M0.313097749,4.1836993 L3.20564779,4.1836993 C4.03219628,4.1836993 4.44547052,3.79484441 4.44547052,3.01713462 C4.44547052,2.2398042 4.03219628,1.8509493 3.20564779,1.8509493 L1.13964623,1.8509493 L1.13964623,1.21512413 L4.44547052,1.21512413 L4.44547052,0.366851399 L1.55292048,0.366851399 C0.726371992,0.366851399 0.313097749,0.761017483 0.313097749,1.54972902 C0.313097749,2.31605769 0.726371992,2.69922203 1.55292048,2.69922203 L3.61892203,2.69922203 L3.61892203,3.33542657 L0.313097749,3.33542657 L0.313097749,4.1836993 Z" id="path2921"></path>
                    <path d="M8.99148719,4.1836993 L6.09893714,4.1836993 C5.27275831,4.1836993 4.85911442,3.75956294 4.85911442,2.91129021 L4.85911442,0.366851399 L8.99148719,0.366851399 L8.99148719,1.21474476 L5.6856629,1.21474476 L5.6856629,1.85056993 L8.99148719,1.85056993 L8.99148719,2.69846329 L5.6856629,2.69846329 L5.6856629,2.91091084 C5.6856629,3.19354196 5.8235442,3.3350472 6.09893714,3.3350472 L8.99148719,3.3350472 L8.99148719,4.1836993 L8.99148719,4.1836993 Z" id="path2923"></path>
                    <path d="M9.39921661,0.36191958 L9.39921661,2.90635839 C9.39921661,3.75425175 9.81249085,4.17876748 10.6386697,4.17876748 L13.5315894,4.17876748 L13.5315894,3.33087413 L10.6386697,3.33087413 C10.3632767,3.33087413 10.2253954,3.18936888 10.2253954,2.90673776 L10.2253954,0.362298951 L9.39921661,0.362298951 L9.39921661,0.36191958 Z" id="path2925"></path>
                    <path d="M18.0772364,4.1836993 L15.1846863,4.1836993 C14.3581379,4.1836993 13.9452333,3.75956294 13.9452333,2.91129021 L13.9452333,0.366851399 L18.0772364,0.366851399 L18.0772364,1.21474476 L14.7714121,1.21474476 L14.7714121,1.85056993 L18.0772364,1.85056993 L18.0772364,2.69846329 L14.7714121,2.69846329 L14.7714121,2.91091084 C14.7714121,3.19354196 14.9092934,3.3350472 15.1846863,3.3350472 L18.0772364,3.3350472 L18.0772364,4.1836993 L18.0772364,4.1836993 Z" id="path2927"></path>
                    <path d="M22.624362,4.1836993 L19.731812,4.1836993 C18.9052635,4.1836993 18.4919893,3.75956294 18.4919893,2.91129021 L18.4919893,1.63888112 C18.4919893,0.790987762 18.9052635,0.366851399 19.731812,0.366851399 L22.624362,0.366851399 L22.624362,1.21474476 L19.731812,1.21474476 C19.4560494,1.21474476 19.3185377,1.35625 19.3185377,1.63888112 L19.3185377,2.91129021 C19.3185377,3.19392133 19.456419,3.33542657 19.731812,3.33542657 L22.624362,3.33542657 L22.624362,4.1836993 Z" id="path2929"></path>
                    <polygon id="path2931" points="23.0398542 0.36191958 27.172227 0.36191958 27.172227 1.21019231 25.51913 1.21019231 25.51913 4.17876748 24.6929512 4.17876748 24.6929512 1.21019231 23.0398542 1.21019231"></polygon>
                </g>
                <g id="text2891" transform="translate(121.364553, 47.374126) scale(-1, 1) translate(-121.364553, -47.374126) translate(109.864553, 44.874126)" fill="#FF0000" fill-rule="nonzero">
                    <path d="M0.242292926,4.1836993 L3.11929162,4.1836993 C3.9413963,4.1836993 4.3517133,3.79484441 4.3517133,3.01713462 C4.3517133,2.2398042 3.9413963,1.8509493 3.11929162,1.8509493 L1.06402993,1.8509493 L1.06402993,1.21512413 L4.3517133,1.21512413 L4.3517133,0.366851399 L1.47508227,0.366851399 C0.652977596,0.366851399 0.241925258,0.761017483 0.241925258,1.55010839 C0.241925258,2.31643706 0.652977596,2.69922203 1.47508227,2.69922203 L3.52997629,2.69922203 L3.52997629,3.33542657 L0.241925258,3.33542657 L0.241925258,4.1836993 L0.242292926,4.1836993 Z" id="path2934"></path>
                    <polygon id="path2936" points="4.75651529 0.36191958 8.86703867 0.36191958 8.86703867 1.21019231 7.22282932 1.21019231 7.22282932 4.17876748 6.40072464 4.17876748 6.40072464 1.21019231 4.75651529 1.21019231 4.75651529 0.36191958"></polygon>
                    <path d="M12.5694511,2.27280944 L12.5694511,1.6366049 C12.5694511,1.35359441 12.4323111,1.21208916 12.1583987,1.21208916 L10.514557,1.21208916 C10.240277,1.21208916 10.1035047,1.35359441 10.1035047,1.6366049 L10.1035047,2.27280944 L12.5694511,2.27280944 Z M10.1035047,3.1207028 L10.1035047,4.18104371 L9.28176769,4.18104371 L9.28176769,1.6366049 C9.28176769,0.788332168 9.69282002,0.364195804 10.5149247,0.364195804 L12.1587664,0.364195804 C12.9808711,0.364195804 13.3919234,0.788332168 13.3919234,1.6366049 L13.3919234,4.18104371 L12.5698187,4.18104371 L12.5698187,3.1207028 L10.1035047,3.1207028 Z" id="path2938"></path>
                    <path d="M14.6203007,1.84639685 L17.0866148,1.84639685 L17.0866148,1.21019231 L14.6203007,1.21019231 L14.6203007,1.84639685 Z M14.6203007,2.69429021 L14.6203007,4.17838811 L13.7989314,4.17838811 L13.7989314,0.36191958 L16.6755624,0.36191958 C17.4976671,0.36191958 17.9087194,0.749256993 17.9087194,1.52393182 C17.9087194,1.89154196 17.8498926,2.16165385 17.732239,2.33388811 C17.8498926,2.53457517 17.9087194,2.79634091 17.9087194,3.11842657 L17.9087194,4.17838811 L17.0869824,4.17838811 L17.0869824,3.11842657 C17.0869824,2.83579545 16.9498424,2.69429021 16.6759301,2.69429021 L14.6203007,2.69429021 L14.6203007,2.69429021 Z" id="path2940"></path>
                    <polygon id="path2942" points="18.3241838 0.36191958 22.4343395 0.36191958 22.4343395 1.21019231 20.7901301 1.21019231 20.7901301 4.17876748 19.9683931 4.17876748 19.9683931 1.21019231 18.3241838 1.21019231"></polygon>
                </g>
                <g id="text2895" transform="translate(170.244957, 83.143357) scale(-1, 1) translate(-170.244957, -83.143357) translate(167.244957, 80.643357)" fill="#FF0000" fill-rule="nonzero">
                    <path d="M1.13958337,1.80171867 L4.12550021,1.80171867 L4.12550021,1.09924099 L1.13958337,1.09924099 L1.13958337,1.80171867 Z M1.13958337,3.44059978 L4.12550021,3.44059978 L4.12550021,2.73812211 L1.13958337,2.73812211 L1.13958337,3.44059978 Z M0.144773981,4.37700323 L0.144773981,0.162837547 L3.6282816,0.162837547 C4.62346315,0.162837547 5.12105393,0.587265734 5.12105393,1.4364723 C5.12105393,1.78315869 5.04140963,2.06085799 4.88212104,2.27027058 C5.04140963,2.47618128 5.12105393,2.75247983 5.12105393,3.09881603 C5.12105393,3.95117429 4.62346315,4.37700323 3.6282816,4.37700323 L0.144773981,4.37700323 L0.144773981,4.37700323 Z" id="path2945"></path>
                </g>
                <g id="text2903" transform="translate(196.691643, 80.643357)" fill="#FF0000" fill-rule="nonzero">
                    <path d="M4.02613092,2.44606509 L4.02613092,1.74358741 C4.02613092,1.43121947 3.86051544,1.27538569 3.52854014,1.27538569 L1.53780486,1.27538569 C1.20582956,1.27538569 1.04021408,1.43121947 1.04021408,1.74358741 L1.04021408,2.44606509 L4.02613092,2.44606509 Z M1.04058625,3.38246853 L1.04058625,4.55349812 L0.0450325237,4.55349812 L0.0450325237,1.7439376 C0.0450325237,0.807534158 0.542995471,0.339332437 1.53817703,0.339332437 L3.52891231,0.339332437 C4.52409387,0.339332437 5.02168464,0.807534158 5.02168464,1.7439376 L5.02168464,4.55349812 L4.02650309,4.55349812 L4.02650309,3.38246853 L1.04058625,3.38246853 Z" id="path2948"></path>
                </g>
                <polygon id="path2950" stroke="#000000" stroke-width="0.5" points="23.4466859 51.3776224 21.4927954 53.3288494 19.5389049 55.2797203 21.4927954 57.2309473 23.4466859 59.1818182 23.4466859 58.0113669 27.3544669 58.0113669 27.3544669 52.548786 23.4466859 52.548786"></polygon>
                <polygon id="path3727" stroke="#000000" stroke-width="0.5" points="51.4524496 51.3776224 53.4063401 53.3288494 55.3602305 55.2797203 53.4063401 57.2309473 51.4524496 59.1818182 51.4524496 58.0113669 47.5446686 58.0113669 47.5446686 52.548786 51.4524496 52.548786"></polygon>
                <polygon id="path3729" stroke="#000000" stroke-width="0.5" points="41.0317003 40.972028 39.0778098 39.020979 37.1239193 37.0699301 35.1700288 39.020979 33.2161383 40.972028 34.3884013 40.972028 34.3884013 44.8741259 39.8594373 44.8741259 39.8594373 40.972028"></polygon>
                <polygon id="path3731" stroke="#000000" stroke-width="0.5" points="41.0317003 69.5872345 39.0778098 71.5385506 37.1239193 73.4895105 35.1700288 71.5385506 33.2161383 69.5872345 34.3884013 69.5872345 34.3884013 65.6853147 39.8594373 65.6853147 39.8594373 69.5872345"></polygon>
                <path d="M42.3342939,54.9547309 C42.3357797,57.6469063 40.1506692,59.8303125 37.4527267,59.8321678 C34.7547842,59.8340208 32.5667008,57.6528395 32.5648415,54.9610349 C32.5648415,54.9588099 32.5648415,54.956585 32.5648415,54.95436 C32.5629846,52.2621846 34.7484667,50.0787784 37.4464092,50.0769231 C40.1439801,50.0750701 42.3324351,52.2558806 42.3342939,54.9480561 C42.3342939,54.950281 42.3342939,54.9525059 42.3342939,54.9547309 Z" id="path3763" stroke="#000000" stroke-width="0.7366"></path>
                <path d="M84.3382917,63.7342657 L93.4657428,63.7342657 C95.4415922,63.7342657 97.0432277,65.0444222 97.0432277,66.6608392 L97.0432277,66.6608392 C97.0432277,68.2772561 95.4415922,69.5874126 93.4657428,69.5874126 L84.3382917,69.5874126 C82.3624424,69.5874126 80.7608069,68.2772561 80.7608069,66.6608392 L80.7608069,66.6608392 C80.7608069,65.0444222 82.3624424,63.7342657 84.3382917,63.7342657 Z" id="rect3789" fill="#1A1A1A" fill-rule="nonzero"></path>
                <path d="M114.949161,63.7342657 L124.076776,63.7342657 C126.052206,63.7342657 127.654179,65.0444222 127.654179,66.6608392 L127.654179,66.6608392 C127.654179,68.2772561 126.05258,69.5874126 124.076776,69.5874126 L114.949161,69.5874126 C112.973731,69.5874126 111.371758,68.2772561 111.371758,66.6608392 L111.371758,66.6608392 C111.371758,65.0444222 112.973357,63.7342657 114.949161,63.7342657 Z" id="rect3791" fill="#1A1A1A" fill-rule="nonzero"></path>
            </g>
            <g id="Group-2" transform="translate(227.451001, 174.862644) rotate(-255.000000) translate(-227.451001, -174.862644) translate(206.951001, 163.362644)" stroke="#000000" stroke-linecap="round" stroke-width="3">
                <path d="M22.235502,18.5197188 C17.833742,15.4734853 -0.711415926,21.8624014 0.0334983309,19.4959867 C0.781943392,17.1183554 3.64938336,4.57689553 15.6761313,0.124377931 C22.3324513,-0.479655968 29.5724193,1.10764347 35.0295607,5.07784686 C37.83979,7.12322162 43.1108407,13.6516096 37.6081527,16.2137037 C37.1110433,26.4770672 26.8728033,21.7282009 22.235502,18.5197188 Z" id="Path" fill="#F6D2A2"></path>
                <path d="M37.6081527,16.2137037 C36.118126,15.6585399 34.538958,15.2643214 33.527822,13.9148563" id="Path" fill="#C6B198"></path>
            </g>
            <g id="Group-3" transform="translate(19.937980, 173.574369) rotate(-105.000000) translate(-19.937980, -173.574369) translate(-0.562020, 162.074369)" stroke="#000000" stroke-linecap="round" stroke-width="3">
                <path d="M17.7795019,18.5197188 C22.1812619,15.4734853 40.2784463,15.7536287 40.3956761,13.8331835 C40.5198711,11.7986344 36.6370967,2.01502763 24.3388726,0.124377931 C17.6825526,-0.479655968 10.4425846,1.10764347 4.98544326,5.07784686 C2.17456326,7.12322162 -3.09583674,13.6516096 2.40685126,16.2137037 C2.90396059,26.4770672 13.1422006,21.7282009 17.7795019,18.5197188 Z" id="Path" fill="#F6D2A2"></path>
                <path d="M2.40685126,16.2137037 C3.89687793,15.6585399 5.47604593,15.2643214 6.48718193,13.9148563" id="Path" fill="#C6B198"></path>
            </g>
        </g>
    </g>
</svg>